<svg width="147" height="19" viewBox="0 0 147 19" fill="none" xmlns="http://www.w3.org/2000/svg">
<path d="M0.992 18V1.2H8.624C10.448 1.2 12.056 1.552 13.448 2.256C14.84 2.944 15.928 3.912 16.712 5.16C17.496 6.408 17.888 7.888 17.888 9.6C17.888 11.296 17.496 12.776 16.712 14.04C15.928 15.288 14.84 16.264 13.448 16.968C12.056 17.656 10.448 18 8.624 18H0.992ZM4.88 14.808H8.432C9.552 14.808 10.52 14.6 11.336 14.184C12.168 13.752 12.808 13.144 13.256 12.36C13.72 11.576 13.952 10.656 13.952 9.6C13.952 8.528 13.72 7.608 13.256 6.84C12.808 6.056 12.168 5.456 11.336 5.04C10.52 4.608 9.552 4.392 8.432 4.392H4.88V14.808ZM27.0641 18.192C25.5921 18.192 24.2961 17.904 23.1761 17.328C22.0721 16.752 21.2161 15.968 20.6081 14.976C20.0001 13.968 19.6961 12.824 19.6961 11.544C19.6961 10.248 19.9921 9.104 20.5841 8.112C21.1921 7.104 22.0161 6.32 23.0561 5.76C24.0961 5.184 25.2721 4.896 26.5841 4.896C27.8481 4.896 28.9841 5.168 29.9921 5.712C31.0161 6.24 31.8241 7.008 32.4161 8.016C33.0081 9.008 33.3041 10.2 33.3041 11.592C33.3041 11.736 33.2961 11.904 33.2801 12.096C33.2641 12.272 33.2481 12.44 33.2321 12.6H22.7441V10.416H31.2641L29.8241 11.064C29.8241 10.392 29.6881 9.808 29.4161 9.312C29.1441 8.816 28.7681 8.432 28.2881 8.16C27.8081 7.872 27.2481 7.728 26.6081 7.728C25.9681 7.728 25.4001 7.872 24.9041 8.16C24.4241 8.432 24.0481 8.824 23.7761 9.336C23.5041 9.832 23.3681 10.424 23.3681 11.112V11.688C23.3681 12.392 23.5201 13.016 23.8241 13.56C24.1441 14.088 24.5841 14.496 25.1441 14.784C25.7201 15.056 26.3921 15.192 27.1601 15.192C27.8481 15.192 28.4481 15.088 28.9601 14.88C29.4881 14.672 29.9681 14.36 30.4001 13.944L32.3921 16.104C31.8001 16.776 31.0561 17.296 30.1601 17.664C29.2641 18.016 28.2321 18.192 27.0641 18.192ZM42.1368 18.192C40.7448 18.192 39.5048 17.912 38.4168 17.352C37.3288 16.776 36.4728 15.984 35.8488 14.976C35.2408 13.968 34.9368 12.824 34.9368 11.544C34.9368 10.248 35.2408 9.104 35.8488 8.112C36.4728 7.104 37.3288 6.32 38.4168 5.76C39.5048 5.184 40.7448 4.896 42.1368 4.896C43.4968 4.896 44.6808 5.184 45.6888 5.76C46.6968 6.32 47.4408 7.128 47.9208 8.184L45.0168 9.744C44.6808 9.136 44.2568 8.688 43.7448 8.4C43.2488 8.112 42.7048 7.968 42.1128 7.968C41.4728 7.968 40.8968 8.112 40.3848 8.4C39.8728 8.688 39.4648 9.096 39.1608 9.624C38.8728 10.152 38.7288 10.792 38.7288 11.544C38.7288 12.296 38.8728 12.936 39.1608 13.464C39.4648 13.992 39.8728 14.4 40.3848 14.688C40.8968 14.976 41.4728 15.12 42.1128 15.12C42.7048 15.12 43.2488 14.984 43.7448 14.712C44.2568 14.424 44.6808 13.968 45.0168 13.344L47.9208 14.928C47.4408 15.968 46.6968 16.776 45.6888 17.352C44.6808 17.912 43.4968 18.192 42.1368 18.192ZM58.0964 18V15.48L57.8564 14.928V10.416C57.8564 9.616 57.6084 8.992 57.1124 8.544C56.6324 8.096 55.8884 7.872 54.8804 7.872C54.1924 7.872 53.5124 7.984 52.8404 8.208C52.1844 8.416 51.6244 8.704 51.1604 9.072L49.8164 6.456C50.5204 5.96 51.3684 5.576 52.3604 5.304C53.3524 5.032 54.3604 4.896 55.3844 4.896C57.3524 4.896 58.8804 5.36 59.9684 6.288C61.0564 7.216 61.6004 8.664 61.6004 10.632V18H58.0964ZM54.1604 18.192C53.1524 18.192 52.2884 18.024 51.5684 17.688C50.8484 17.336 50.2964 16.864 49.9124 16.272C49.5284 15.68 49.3364 15.016 49.3364 14.28C49.3364 13.512 49.5204 12.84 49.8884 12.264C50.2724 11.688 50.8724 11.24 51.6884 10.92C52.5044 10.584 53.5684 10.416 54.8804 10.416H58.3124V12.6H55.2884C54.4084 12.6 53.8004 12.744 53.4644 13.032C53.1444 13.32 52.9844 13.68 52.9844 14.112C52.9844 14.592 53.1684 14.976 53.5364 15.264C53.9204 15.536 54.4404 15.672 55.0964 15.672C55.7204 15.672 56.2804 15.528 56.7764 15.24C57.2724 14.936 57.6324 14.496 57.8564 13.92L58.4324 15.648C58.1604 16.48 57.6644 17.112 56.9444 17.544C56.2244 17.976 55.2964 18.192 54.1604 18.192ZM76.8729 1.2H80.7609V18H76.8729V1.2ZM69.2409 18H65.3529V1.2H69.2409V18ZM77.1609 11.112H68.9529V7.824H77.1609V11.112ZM90.9798 18.192C89.5078 18.192 88.2118 17.904 87.0918 17.328C85.9878 16.752 85.1318 15.968 84.5238 14.976C83.9158 13.968 83.6118 12.824 83.6118 11.544C83.6118 10.248 83.9078 9.104 84.4998 8.112C85.1078 7.104 85.9318 6.32 86.9718 5.76C88.0118 5.184 89.1878 4.896 90.4998 4.896C91.7638 4.896 92.8998 5.168 93.9078 5.712C94.9318 6.24 95.7398 7.008 96.3318 8.016C96.9238 9.008 97.2198 10.2 97.2198 11.592C97.2198 11.736 97.2118 11.904 97.1958 12.096C97.1798 12.272 97.1638 12.44 97.1478 12.6H86.6598V10.416H95.1797L93.7398 11.064C93.7398 10.392 93.6038 9.808 93.3318 9.312C93.0598 8.816 92.6838 8.432 92.2038 8.16C91.7238 7.872 91.1638 7.728 90.5238 7.728C89.8838 7.728 89.3158 7.872 88.8198 8.16C88.3398 8.432 87.9638 8.824 87.6918 9.336C87.4198 9.832 87.2838 10.424 87.2838 11.112V11.688C87.2838 12.392 87.4358 13.016 87.7398 13.56C88.0598 14.088 88.4998 14.496 89.0598 14.784C89.6358 15.056 90.3078 15.192 91.0758 15.192C91.7638 15.192 92.3638 15.088 92.8758 14.88C93.4038 14.672 93.8838 14.36 94.3158 13.944L96.3078 16.104C95.7158 16.776 94.9718 17.296 94.0758 17.664C93.1798 18.016 92.1478 18.192 90.9798 18.192ZM107.381 18V15.48L107.141 14.928V10.416C107.141 9.616 106.893 8.992 106.397 8.544C105.917 8.096 105.173 7.872 104.165 7.872C103.477 7.872 102.797 7.984 102.125 8.208C101.469 8.416 100.909 8.704 100.445 9.072L99.1008 6.456C99.8048 5.96 100.653 5.576 101.645 5.304C102.637 5.032 103.645 4.896 104.669 4.896C106.637 4.896 108.165 5.36 109.253 6.288C110.341 7.216 110.885 8.664 110.885 10.632V18H107.381ZM103.445 18.192C102.437 18.192 101.573 18.024 100.853 17.688C100.133 17.336 99.5808 16.864 99.1968 16.272C98.8128 15.68 98.6208 15.016 98.6208 14.28C98.6208 13.512 98.8048 12.84 99.1728 12.264C99.5568 11.688 100.157 11.24 100.973 10.92C101.789 10.584 102.853 10.416 104.165 10.416H107.597V12.6H104.573C103.693 12.6 103.085 12.744 102.749 13.032C102.429 13.32 102.269 13.68 102.269 14.112C102.269 14.592 102.453 14.976 102.821 15.264C103.205 15.536 103.725 15.672 104.381 15.672C105.005 15.672 105.565 15.528 106.061 15.24C106.557 14.936 106.917 14.496 107.141 13.92L107.717 15.648C107.445 16.48 106.949 17.112 106.229 17.544C105.509 17.976 104.581 18.192 103.445 18.192ZM114.373 18V0.191999H118.117V18H114.373ZM127.933 18.192C126.413 18.192 125.229 17.808 124.381 17.04C123.533 16.256 123.109 15.096 123.109 13.56V2.232H126.853V13.512C126.853 14.056 126.997 14.48 127.285 14.784C127.573 15.072 127.965 15.216 128.461 15.216C129.053 15.216 129.557 15.056 129.973 14.736L130.981 17.376C130.597 17.648 130.133 17.856 129.589 18C129.061 18.128 128.509 18.192 127.933 18.192ZM121.117 8.256V5.376H130.069V8.256H121.117ZM141.031 4.896C142.055 4.896 142.967 5.104 143.767 5.52C144.583 5.92 145.223 6.544 145.687 7.392C146.151 8.224 146.383 9.296 146.383 10.608V18H142.639V11.184C142.639 10.144 142.407 9.376 141.943 8.88C141.495 8.384 140.855 8.136 140.023 8.136C139.431 8.136 138.895 8.264 138.415 8.52C137.951 8.76 137.583 9.136 137.311 9.648C137.055 10.16 136.927 10.816 136.927 11.616V18H133.183V0.191999H136.927V8.664L136.087 7.584C136.551 6.72 137.215 6.056 138.079 5.592C138.943 5.128 139.927 4.896 141.031 4.896Z" fill="#252B42"/>
</svg>
