<svg width="32" height="32" viewBox="0 0 32 32" fill="none" xmlns="http://www.w3.org/2000/svg">
<path fill-rule="evenodd" clip-rule="evenodd" d="M16 30.9981L17.5775 29.6684C19.3675 28.1348 20.9775 26.6798 22.41 25.2959L23.5925 24.1289C28.53 19.1522 31 15.2024 31 12.283C31 6.05143 24.285 1 16 1C7.715 1 1 6.05143 1 12.283C1 15.2024 3.47 19.1522 8.4075 24.1289L9.59 25.2959C11.6336 27.2547 13.7717 29.1555 16 30.9981Z" stroke="#FC724D" stroke-width="2" stroke-linecap="round" stroke-linejoin="round"/>
<path d="M16 16.8969C19.4518 16.8969 22.25 14.8036 22.25 12.2214C22.25 9.6392 19.4518 7.5459 16 7.5459C12.5482 7.5459 9.75 9.6392 9.75 12.2214C9.75 14.8036 12.5482 16.8969 16 16.8969Z" stroke="#FC724D" stroke-width="2" stroke-linecap="round" stroke-linejoin="round"/>
</svg>
