<svg width="50" height="50" viewBox="0 0 50 50" fill="none" xmlns="http://www.w3.org/2000/svg">
<path d="M50 47.3849L36.0333 33.4183C39.3896 29.389 41.0633 24.2209 40.7061 18.989C40.349 13.7572 37.9886 8.86446 34.1159 5.32864C30.2433 1.79281 25.1565 -0.113859 19.9138 0.00526372C14.6712 0.124387 9.67628 2.26013 5.96821 5.96821C2.26013 9.67628 0.124387 14.6712 0.00526372 19.9138C-0.113859 25.1565 1.79281 30.2433 5.32864 34.1159C8.86446 37.9886 13.7572 40.349 18.989 40.7061C24.2209 41.0633 29.389 39.3896 33.4183 36.0333L47.3849 50L50 47.3849ZM3.76494 20.4096C3.76494 17.1176 4.74113 13.8995 6.57006 11.1623C8.399 8.42511 10.9985 6.29173 14.0399 5.03194C17.0813 3.77214 20.428 3.44253 23.6568 4.08476C26.8855 4.727 29.8513 6.31224 32.1791 8.64004C34.5069 10.9678 36.0921 13.9336 36.7344 17.1624C37.3766 20.3911 37.047 23.7378 35.7872 26.7792C34.5274 29.8206 32.394 32.4201 29.6568 34.2491C26.9196 36.078 23.7016 37.0542 20.4096 37.0542C15.9966 37.0493 11.7659 35.2941 8.64544 32.1737C5.52503 29.0533 3.76983 24.8225 3.76494 20.4096Z" fill="#5B4E4E"/>
</svg>
