<svg width="23" height="23" viewBox="0 0 23 23" fill="none" xmlns="http://www.w3.org/2000/svg">
<path d="M5.99967 13.1374L4.633 19.0554C4.59068 19.2346 4.60338 19.4224 4.66945 19.5943C4.73552 19.7662 4.85189 19.9141 5.00335 20.0188C5.15481 20.1235 5.33432 20.1801 5.51845 20.1812C5.70258 20.1823 5.88275 20.1278 6.03545 20.0249L11.0298 16.6954L16.0241 20.0249C16.1804 20.1287 16.3646 20.1821 16.5521 20.178C16.7396 20.1739 16.9213 20.1124 17.0729 20.0019C17.2244 19.8915 17.3385 19.7372 17.3998 19.56C17.461 19.3827 17.4665 19.191 17.4156 19.0105L15.7379 13.1402L19.8985 9.39603C20.0318 9.27605 20.1269 9.11963 20.1722 8.94614C20.2175 8.77264 20.211 8.58967 20.1534 8.41986C20.0958 8.25004 19.9897 8.10083 19.8483 7.99067C19.7068 7.88051 19.5361 7.81423 19.3574 7.80004L14.1282 7.38362L11.8654 2.3746C11.7932 2.21331 11.6759 2.07635 11.5277 1.98025C11.3794 1.88415 11.2065 1.83301 11.0298 1.83301C10.8531 1.83301 10.6802 1.88415 10.5319 1.98025C10.3836 2.07635 10.2663 2.21331 10.1942 2.3746L7.93137 7.38362L2.70222 7.79913C2.52653 7.81305 2.35857 7.87729 2.21843 7.98416C2.07829 8.09104 1.97191 8.23602 1.91202 8.40178C1.85212 8.56753 1.84125 8.74703 1.88069 8.9188C1.92014 9.09057 2.00824 9.24734 2.13445 9.37035L5.99967 13.1374ZM8.61654 9.16947C8.78027 9.15658 8.9375 9.09987 9.07177 9.0053C9.20604 8.91073 9.31239 8.78179 9.37968 8.63198L11.0298 4.98047L12.6799 8.63198C12.7472 8.78179 12.8535 8.91073 12.9878 9.0053C13.1221 9.09987 13.2793 9.15658 13.443 9.16947L17.0863 9.4584L14.086 12.1587C13.8255 12.3936 13.7219 12.7549 13.8173 13.0925L14.9666 17.1146L11.5398 14.8297C11.3894 14.7288 11.2123 14.6749 11.0312 14.6749C10.85 14.6749 10.673 14.7288 10.5226 14.8297L6.94167 17.2173L7.90477 13.0475C7.94008 12.8942 7.93534 12.7343 7.89101 12.5833C7.84667 12.4323 7.76423 12.2953 7.65161 12.1853L4.86506 9.46849L8.61654 9.16947Z" fill="#F3CD03"/>
</svg>
